# xmcd
#
# Track frame offsets: 
#        182
#        12602
#        25492
#        34967
#        68057
#        80625
#        93897
#        109382
#        119770
#        140212
#
# Disc length: 2279 seconds
#
# Revision: 3
# Processed by: cddbd v1.5.2PL0 Copyright (c) Steve Scherf et al.
# Submitted via: ExactAudioCopy v0.99pb4
#
DISCID=9508e50a
DTITLE=James Cotton - Cut You Loose!
DYEAR=1900
DGENRE=blues
TTITLE0=River's Invitation
TTITLE1=Honest I Do
TTITLE2=Got To Get You Off My Mind
TTITLE3=Coast Blues
TTITLE4=Next Time You See Me
TTITLE5=Cut You Loose
TTITLE6=Ain't Nobody's Business
TTITLE7=Set A Date
TTITLE8=Slippin' And Slidin'
TTITLE9=Negative 10-4
EXTD=
EXTT0=
EXTT1=
EXTT2=
EXTT3=
EXTT4=
EXTT5=
EXTT6=
EXTT7=
EXTT8=
EXTT9=
PLAYORDER=
